<svg xmlns="http://www.w3.org/2000/svg" xmlns:xlink="http://www.w3.org/1999/xlink" width="500" zoomAndPan="magnify" viewBox="0 0 375 374.999991" height="500" preserveAspectRatio="xMidYMid meet" version="1.0"><defs><clipPath id="b932faf373"><path d="M 11.152344 11.152344 L 363.652344 11.152344 L 363.652344 363.652344 L 11.152344 363.652344 Z M 11.152344 11.152344 " clip-rule="nonzero"/></clipPath></defs><rect x="-37.5" width="450" fill="#ffffff" y="-37.499999" height="449.999989" fill-opacity="1"/><rect x="-37.5" width="450" fill="#ffffff" y="-37.499999" height="449.999989" fill-opacity="1"/><g clip-path="url(#b932faf373)"><path fill="#1800ad" d="M 11.152344 87.566406 L 11.152344 40.542969 C 11.160156 32.75 14.261719 25.28125 19.769531 19.769531 C 25.28125 14.261719 32.75 11.160156 40.542969 11.152344 L 87.566406 11.152344 C 89.125 11.152344 90.621094 11.769531 91.722656 12.875 C 92.828125 13.976562 93.445312 15.472656 93.445312 17.03125 C 93.445312 18.589844 92.828125 20.085938 91.722656 21.1875 C 90.621094 22.289062 89.125 22.910156 87.566406 22.910156 L 40.542969 22.910156 C 35.867188 22.914062 31.386719 24.773438 28.078125 28.078125 C 24.773438 31.386719 22.914062 35.867188 22.910156 40.542969 L 22.910156 87.566406 C 22.910156 89.125 22.289062 90.621094 21.1875 91.722656 C 20.085938 92.828125 18.589844 93.445312 17.03125 93.445312 C 15.472656 93.445312 13.976562 92.828125 12.875 91.722656 C 11.769531 90.621094 11.152344 89.125 11.152344 87.566406 Z M 87.566406 352.082031 L 40.542969 352.082031 C 35.867188 352.078125 31.386719 350.21875 28.078125 346.914062 C 24.773438 343.605469 22.914062 339.125 22.910156 334.449219 L 22.910156 287.425781 C 22.910156 285.863281 22.289062 284.371094 21.1875 283.265625 C 20.085938 282.164062 18.589844 281.546875 17.03125 281.546875 C 15.472656 281.546875 13.976562 282.164062 12.875 283.265625 C 11.769531 284.371094 11.152344 285.863281 11.152344 287.425781 L 11.152344 334.449219 C 11.160156 342.242188 14.261719 349.710938 19.769531 355.222656 C 25.28125 360.730469 32.75 363.832031 40.542969 363.839844 L 87.566406 363.839844 C 89.125 363.839844 90.621094 363.21875 91.722656 362.117188 C 92.828125 361.015625 93.445312 359.519531 93.445312 357.960938 C 93.445312 356.402344 92.828125 354.90625 91.722656 353.804688 C 90.621094 352.703125 89.125 352.082031 87.566406 352.082031 Z M 357.960938 281.546875 C 357.1875 281.546875 356.425781 281.695312 355.710938 281.992188 C 355 282.289062 354.351562 282.722656 353.804688 283.265625 C 353.257812 283.8125 352.824219 284.460938 352.53125 285.175781 C 352.234375 285.886719 352.082031 286.652344 352.082031 287.425781 L 352.082031 334.449219 C 352.078125 339.125 350.21875 343.605469 346.914062 346.914062 C 343.605469 350.21875 339.125 352.078125 334.449219 352.082031 L 287.425781 352.082031 C 285.863281 352.082031 284.371094 352.703125 283.265625 353.804688 C 282.164062 354.90625 281.546875 356.402344 281.546875 357.960938 C 281.546875 359.519531 282.164062 361.015625 283.265625 362.117188 C 284.371094 363.21875 285.863281 363.839844 287.425781 363.839844 L 334.449219 363.839844 C 342.242188 363.832031 349.710938 360.730469 355.222656 355.222656 C 360.730469 349.710938 363.832031 342.242188 363.839844 334.449219 L 363.839844 287.425781 C 363.839844 286.652344 363.6875 285.886719 363.390625 285.175781 C 363.097656 284.460938 362.664062 283.8125 362.117188 283.265625 C 361.574219 282.722656 360.925781 282.289062 360.210938 281.992188 C 359.496094 281.695312 358.734375 281.546875 357.960938 281.546875 Z M 334.449219 11.152344 L 287.425781 11.152344 C 285.863281 11.152344 284.371094 11.769531 283.265625 12.875 C 282.164062 13.976562 281.546875 15.472656 281.546875 17.03125 C 281.546875 18.589844 282.164062 20.085938 283.265625 21.1875 C 284.371094 22.289062 285.863281 22.910156 287.425781 22.910156 L 334.449219 22.910156 C 339.125 22.914062 343.605469 24.773438 346.914062 28.078125 C 350.21875 31.386719 352.078125 35.867188 352.082031 40.542969 L 352.082031 87.566406 C 352.082031 89.125 352.703125 90.621094 353.804688 91.722656 C 354.90625 92.828125 356.402344 93.445312 357.960938 93.445312 C 359.519531 93.445312 361.015625 92.828125 362.117188 91.722656 C 363.21875 90.621094 363.839844 89.125 363.839844 87.566406 L 363.839844 40.542969 C 363.832031 32.75 360.730469 25.28125 355.222656 19.769531 C 349.710938 14.261719 342.242188 11.160156 334.449219 11.152344 Z M 363.839844 187.496094 C 363.835938 189.054688 363.214844 190.546875 362.113281 191.648438 C 361.011719 192.75 359.519531 193.371094 357.960938 193.375 L 310.9375 193.375 L 310.9375 222.765625 C 310.9375 255.503906 297.929688 286.902344 274.78125 310.050781 C 251.632812 333.199219 220.234375 346.203125 187.496094 346.203125 C 154.757812 346.203125 123.359375 333.199219 100.210938 310.050781 C 77.058594 286.902344 64.054688 255.503906 64.054688 222.765625 L 64.054688 193.375 L 17.03125 193.375 C 15.472656 193.375 13.976562 192.753906 12.875 191.652344 C 11.769531 190.550781 11.152344 189.054688 11.152344 187.496094 C 11.152344 185.9375 11.769531 184.441406 12.875 183.339844 C 13.976562 182.238281 15.472656 181.617188 17.03125 181.617188 L 64.054688 181.617188 L 64.054688 152.226562 C 64.054688 119.488281 77.058594 88.089844 100.210938 64.941406 C 123.359375 41.792969 154.757812 28.785156 187.496094 28.785156 C 220.234375 28.785156 251.632812 41.792969 274.78125 64.941406 C 297.929688 88.089844 310.9375 119.488281 310.9375 152.226562 L 310.9375 181.617188 L 357.960938 181.617188 C 359.519531 181.621094 361.011719 182.242188 362.113281 183.34375 C 363.214844 184.445312 363.835938 185.9375 363.839844 187.496094 Z M 93.445312 181.617188 L 105.203125 181.617188 L 105.203125 152.226562 C 105.203125 130.402344 113.871094 109.46875 129.304688 94.035156 C 144.738281 78.601562 165.671875 69.933594 187.496094 69.933594 C 209.320312 69.933594 230.253906 78.601562 245.6875 94.035156 C 261.121094 109.46875 269.789062 130.402344 269.789062 152.226562 L 269.789062 181.617188 L 281.546875 181.617188 L 281.546875 152.226562 C 281.546875 127.285156 271.636719 103.363281 254 85.722656 C 236.359375 68.085938 212.4375 58.175781 187.496094 58.175781 C 162.550781 58.175781 138.628906 68.085938 120.992188 85.722656 C 103.355469 103.363281 93.445312 127.285156 93.445312 152.226562 Z M 240.398438 152.226562 L 240.398438 181.617188 L 252.15625 181.617188 L 252.15625 152.226562 C 252.15625 135.078125 245.34375 118.632812 233.214844 106.507812 C 221.089844 94.378906 204.644531 87.566406 187.496094 87.566406 C 170.347656 87.566406 153.902344 94.378906 141.773438 106.507812 C 129.648438 118.632812 122.835938 135.078125 122.835938 152.226562 L 122.835938 181.617188 L 134.59375 181.617188 L 134.59375 152.226562 C 134.59375 138.195312 140.167969 124.738281 150.085938 114.820312 C 160.007812 104.898438 173.464844 99.324219 187.496094 99.324219 C 201.527344 99.324219 214.984375 104.898438 224.902344 114.820312 C 234.824219 124.738281 240.398438 138.195312 240.398438 152.226562 Z M 211.007812 152.226562 L 211.007812 181.617188 L 222.765625 181.617188 L 222.765625 152.226562 C 222.765625 142.871094 219.046875 133.902344 212.433594 127.289062 C 205.820312 120.675781 196.851562 116.957031 187.496094 116.957031 C 178.140625 116.957031 169.171875 120.675781 162.558594 127.289062 C 155.941406 133.902344 152.226562 142.871094 152.226562 152.226562 L 152.226562 181.617188 L 163.984375 181.617188 L 163.984375 152.226562 C 163.984375 145.992188 166.460938 140.011719 170.871094 135.601562 C 175.28125 131.191406 181.257812 128.714844 187.496094 128.714844 C 193.730469 128.714844 199.710938 131.191406 204.121094 135.601562 C 208.53125 140.011719 211.007812 145.992188 211.007812 152.226562 Z M 187.496094 146.347656 C 185.9375 146.351562 184.445312 146.972656 183.34375 148.074219 C 182.242188 149.175781 181.621094 150.667969 181.617188 152.226562 L 181.617188 181.617188 L 193.375 181.617188 L 193.375 152.226562 C 193.371094 150.667969 192.75 149.175781 191.648438 148.074219 C 190.546875 146.972656 189.054688 146.351562 187.496094 146.347656 Z M 122.835938 222.765625 L 122.835938 193.375 L 105.203125 193.375 L 105.203125 222.765625 C 105.203125 229 107.679688 234.980469 112.089844 239.390625 C 116.5 243.800781 122.476562 246.277344 128.714844 246.277344 C 134.949219 246.277344 140.929688 243.800781 145.339844 239.390625 C 149.75 234.980469 152.226562 229 152.226562 222.765625 L 152.226562 193.375 L 134.59375 193.375 L 134.59375 222.765625 C 134.59375 224.324219 133.972656 225.820312 132.871094 226.921875 C 131.769531 228.023438 130.273438 228.640625 128.714844 228.640625 C 127.15625 228.640625 125.660156 228.023438 124.558594 226.921875 C 123.457031 225.820312 122.835938 224.324219 122.835938 222.765625 Z M 299.179688 193.375 L 281.546875 193.375 L 281.546875 222.765625 C 281.546875 224.324219 280.925781 225.820312 279.824219 226.921875 C 278.722656 228.023438 277.226562 228.640625 275.667969 228.640625 C 274.109375 228.640625 272.613281 228.023438 271.511719 226.921875 C 270.410156 225.820312 269.789062 224.324219 269.789062 222.765625 L 269.789062 193.375 L 252.15625 193.375 L 252.15625 222.765625 C 252.128906 239.566406 248.6875 256.1875 242.03125 271.617188 C 235.378906 287.046875 225.65625 300.957031 213.453125 312.507812 C 212.894531 313.046875 212.234375 313.46875 211.507812 313.75 C 210.785156 314.03125 210.011719 314.167969 209.234375 314.148438 C 208.460938 314.128906 207.695312 313.957031 206.984375 313.636719 C 206.277344 313.324219 205.636719 312.867188 205.105469 312.304688 C 204.570312 311.738281 204.15625 311.074219 203.882812 310.347656 C 203.605469 309.621094 203.480469 308.847656 203.503906 308.070312 C 203.53125 307.292969 203.710938 306.53125 204.035156 305.824219 C 204.359375 305.117188 204.820312 304.484375 205.390625 303.957031 C 216.496094 293.5625 225.339844 280.984375 231.367188 267.011719 C 237.390625 253.042969 240.464844 237.980469 240.398438 222.765625 L 240.398438 193.375 L 222.765625 193.375 L 222.765625 222.765625 C 222.753906 242.210938 216.71875 261.175781 205.492188 277.054688 C 194.261719 292.929688 178.390625 304.9375 160.054688 311.425781 C 159.429688 311.644531 158.769531 311.757812 158.105469 311.757812 C 156.71875 311.757812 155.375 311.265625 154.3125 310.371094 C 153.253906 309.476562 152.542969 308.238281 152.308594 306.867188 C 152.074219 305.5 152.332031 304.09375 153.039062 302.898438 C 153.742188 301.703125 154.84375 300.792969 156.152344 300.332031 C 172.191406 294.65625 186.074219 284.152344 195.898438 270.261719 C 205.722656 256.371094 211 239.777344 211.007812 222.765625 L 211.007812 193.375 L 193.375 193.375 L 193.375 222.765625 C 193.394531 231.9375 191.457031 241.007812 187.691406 249.375 C 183.929688 257.738281 178.425781 265.207031 171.546875 271.277344 C 164.667969 277.347656 156.578125 281.878906 147.808594 284.574219 C 139.039062 287.269531 129.796875 288.066406 120.699219 286.90625 C 119.933594 286.8125 119.191406 286.566406 118.519531 286.183594 C 117.851562 285.804688 117.261719 285.292969 116.785156 284.6875 C 115.828125 283.457031 115.398438 281.894531 115.59375 280.347656 C 115.785156 278.800781 116.582031 277.394531 117.8125 276.4375 C 119.042969 275.480469 120.605469 275.050781 122.152344 275.242188 C 124.328125 275.519531 126.519531 275.660156 128.714844 275.667969 C 142.742188 275.652344 156.1875 270.074219 166.105469 260.15625 C 176.023438 250.238281 181.601562 236.789062 181.617188 222.765625 L 181.617188 193.375 L 163.984375 193.375 L 163.984375 222.765625 C 163.984375 232.117188 160.265625 241.089844 153.652344 247.703125 C 147.039062 254.316406 138.066406 258.03125 128.714844 258.03125 C 119.359375 258.03125 110.390625 254.316406 103.777344 247.703125 C 97.160156 241.089844 93.445312 232.117188 93.445312 222.765625 L 93.445312 193.375 L 75.8125 193.375 L 75.8125 222.765625 C 75.8125 252.386719 87.578125 280.792969 108.523438 301.738281 C 129.46875 322.683594 157.875 334.449219 187.496094 334.449219 C 217.117188 334.449219 245.523438 322.683594 266.46875 301.738281 C 287.414062 280.792969 299.179688 252.386719 299.179688 222.765625 Z M 299.179688 193.375 " fill-opacity="1" fill-rule="nonzero"/></g></svg>